<svg width="29" height="31" viewBox="0 0 29 31" fill="none" xmlns="http://www.w3.org/2000/svg">
<path d="M17.1568 15.7641L28.4489 4.16392C29.1837 3.40938 29.1837 2.18938 28.4489 1.43484C27.7144 0.680291 26.5267 0.680291 25.7922 1.43484L14.4998 13.035L3.20781 1.43484C2.47295 0.680291 1.28567 0.680291 0.551149 1.43484C-0.183716 2.18938 -0.183716 3.40938 0.551149 4.16392L11.8432 15.7641L0.551149 27.3644C-0.183716 28.1189 -0.183716 29.3389 0.551149 30.0934C0.917206 30.4698 1.39852 30.6589 1.87948 30.6589C2.36045 30.6589 2.84141 30.4698 3.20781 30.0934L14.4998 18.4932L25.7922 30.0934C26.1586 30.4698 26.6396 30.6589 27.1205 30.6589C27.6015 30.6589 28.0825 30.4698 28.4489 30.0934C29.1837 29.3389 29.1837 28.1189 28.4489 27.3644L17.1568 15.7641Z" fill="black"/>
</svg>
