<svg width="20" height="21" viewBox="0 0 20 21" fill="none" xmlns="http://www.w3.org/2000/svg">
<path d="M17.0698 0.0917053L2.9292 0.0917053C1.3139 0.0917053 -0.000488281 1.44193 -0.000488281 3.10126L-0.000488281 17.6274C-0.000488281 19.2867 1.3139 20.6369 2.9292 20.6369L8.82764 20.6369L8.82764 13.3739L6.48389 13.3739L6.48389 9.76241L8.82764 9.76241L8.82764 7.31464C8.82764 5.32316 10.4046 3.70317 12.3433 3.70317L15.8979 3.70317L15.8979 7.31464L12.3433 7.31464L12.3433 9.76241L15.8979 9.76241L15.312 13.3739L12.3433 13.3739L12.3433 20.6369L17.0698 20.6369C18.6851 20.6369 19.9995 19.2867 19.9995 17.6274L19.9995 3.10126C19.9995 1.44193 18.6851 0.0917053 17.0698 0.0917053Z" fill="black"/>
</svg>
