<svg width="20" height="20" viewBox="0 0 20 20" fill="none" xmlns="http://www.w3.org/2000/svg">
<path d="M10 0.0917053C4.475 0.0917053 0 4.57228 0 10.0983C0 14.5204 2.865 18.2703 6.8375 19.5924C7.3375 19.6866 7.52083 19.3769 7.52083 19.1113C7.52083 18.8736 7.5125 18.244 7.50833 17.4098C4.72667 18.0132 4.14 16.0673 4.14 16.0673C3.685 14.9124 3.0275 14.6035 3.0275 14.6035C2.12167 13.9832 3.0975 13.9959 3.0975 13.9959C4.10167 14.0655 4.62917 15.027 4.62917 15.027C5.52083 16.557 6.97 16.1149 7.54167 15.8594C7.63167 15.212 7.88917 14.7715 8.175 14.5212C5.95417 14.2709 3.62 13.4104 3.62 9.57645C3.62 8.48431 4.0075 7.59158 4.64917 6.89149C4.53667 6.63861 4.19917 5.62115 4.73667 4.24303C4.73667 4.24303 5.57417 3.97487 7.48667 5.26898C8.28667 5.04665 9.13667 4.93633 9.98667 4.93124C10.8367 4.93633 11.6867 5.04665 12.4867 5.26898C14.3867 3.97487 15.2242 4.24303 15.2242 4.24303C15.7617 5.62115 15.4242 6.63861 15.3242 6.89149C15.9617 7.59158 16.3492 8.48431 16.3492 9.57645C16.3492 13.4206 14.0117 14.2666 11.7867 14.5127C12.1367 14.8131 12.4617 15.4267 12.4617 16.3644C12.4617 17.7034 12.4492 18.7795 12.4492 19.1045C12.4492 19.3667 12.6242 19.6798 13.1367 19.5797C17.1375 18.2661 20 14.5136 20 10.0983C20 4.57228 15.5225 0.0917053 10 0.0917053Z" fill="#212121"/>
</svg>
