<svg width="20" height="21" viewBox="0 0 20 21" fill="none" xmlns="http://www.w3.org/2000/svg">
<path d="M13.7495 0.0917053L6.24951 0.0917053C2.79826 0.0917053 -0.000488281 2.96675 -0.000488281 6.51209L-0.000488281 14.2165C-0.000488281 17.7619 2.79826 20.6369 6.24951 20.6369L13.7495 20.6369C17.2008 20.6369 19.9995 17.7619 19.9995 14.2165L19.9995 6.51209C19.9995 2.96675 17.2008 0.0917053 13.7495 0.0917053ZM18.1245 14.2165C18.1245 16.6948 16.162 18.7108 13.7495 18.7108L6.24951 18.7108C3.83701 18.7108 1.87451 16.6948 1.87451 14.2165L1.87451 6.51209C1.87451 4.03382 3.83701 2.01782 6.24951 2.01782L13.7495 2.01782C16.162 2.01782 18.1245 4.03382 18.1245 6.51209L18.1245 14.2165Z" fill="black"/>
<path d="M9.99951 5.228C7.23826 5.228 4.99951 7.52778 4.99951 10.3643C4.99951 13.2008 7.23826 15.5006 9.99951 15.5006C12.7608 15.5006 14.9995 13.2008 14.9995 10.3643C14.9995 7.52778 12.7608 5.228 9.99951 5.228ZM9.99951 13.5745C8.27701 13.5745 6.87451 12.1338 6.87451 10.3643C6.87451 8.59356 8.27701 7.15411 9.99951 7.15411C11.722 7.15411 13.1245 8.59356 13.1245 10.3643C13.1245 12.1338 11.722 13.5745 9.99951 13.5745Z" fill="black"/>
<path d="M15.3745 5.52718C15.7425 5.52718 16.0408 5.22076 16.0408 4.84277C16.0408 4.46478 15.7425 4.15836 15.3745 4.15836C15.0065 4.15836 14.7083 4.46478 14.7083 4.84277C14.7083 5.22076 15.0065 5.52718 15.3745 5.52718Z" fill="black"/>
</svg>
